<?xml version="1.0" encoding="UTF-8" standalone="no"?>
<svg
   xmlns:dc="http://purl.org/dc/elements/1.1/"
   xmlns:cc="http://creativecommons.org/ns#"
   xmlns:rdf="http://www.w3.org/1999/02/22-rdf-syntax-ns#"
   xmlns:svg="http://www.w3.org/2000/svg"
   xmlns="http://www.w3.org/2000/svg"
   xmlns:sodipodi="http://sodipodi.sourceforge.net/DTD/sodipodi-0.dtd"
   xmlns:inkscape="http://www.inkscape.org/namespaces/inkscape"
   inkscape:version="1.0 (4035a4fb49, 2020-05-01)"
   inkscape:export-ydpi="12"
   inkscape:export-xdpi="12"
   inkscape:export-filename="C:\Users\kesha\Desktop\SciHack\circle-logo_64.png"
   height="530"
   width="530"
   sodipodi:docname="circle-solid.svg"
   id="svg4"
   version="1.1"
   viewBox="0 0 530 530"
   role="img"
   class="svg-inline--fa fa-circle fa-w-16"
   data-icon="circle"
   data-prefix="fas"
   focusable="false"
   aria-hidden="true">
  <metadata
     id="metadata10">
    <rdf:RDF>
      <cc:Work
         rdf:about="">
        <dc:format>image/svg+xml</dc:format>
        <dc:type
           rdf:resource="http://purl.org/dc/dcmitype/StillImage" />
        <dc:title></dc:title>
      </cc:Work>
    </rdf:RDF>
  </metadata>
  <defs
     id="defs8" />
  <sodipodi:namedview
     inkscape:current-layer="svg4"
     inkscape:window-maximized="1"
     inkscape:window-y="-8"
     inkscape:window-x="-8"
     inkscape:cy="334.16482"
     inkscape:cx="88.254611"
     inkscape:zoom="0.52539063"
     showgrid="false"
     id="namedview6"
     inkscape:window-height="705"
     inkscape:window-width="1366"
     inkscape:pageshadow="2"
     inkscape:pageopacity="0"
     guidetolerance="10"
     gridtolerance="10"
     objecttolerance="10"
     borderopacity="1"
     bordercolor="#666666"
     pagecolor="#ffffff" />
  <path
     style="fill:#072f60;fill-opacity:1;stroke-width:1.03226"
     id="path2"
     d="M 265.90335,9.9033457 C 124.484,9.9033457 9.9033457,124.48399 9.9033457,265.90334 c 0,141.41935 114.5806543,256 256.0000043,256 141.41935,0 256,-114.58065 256,-256 0,-141.41935 -114.58065,-255.9999943 -256,-255.9999943 z"
     fill="currentColor" />
  <path
     id="path12"
     d="m 360.5994,183.58774 c -17.86786,0.27374 -32.5487,15.59366 -32.91445,34.37182 -0.26078,13.34237 6.53066,25.03772 16.71854,31.18734 v 61.82529 c 0,31.46187 -26.22733,57.10348 -58.51506,57.10348 -31.34721,0 -57.05195,-24.214 -58.46258,-54.46791 38.03468,-8.23605 66.76969,-43.70595 66.76969,-86.09444 v -85.3257 c 0,-6.25934 -4.23178,-11.69515 -10.08334,-12.90312 l -32.86249,-6.91838 c -6.79186,-1.42676 -13.37477,3.18472 -14.73313,10.3225 l -1.67193,8.62054 c -1.35839,7.13798 3.0302,14.05615 9.82203,15.48376 l 16.03945,3.34938 v 66.65722 c 0,29.04592 -22.04758,53.09525 -49.68543,53.36981 -27.89907,0.27376 -50.62584,-23.44544 -50.62584,-52.71077 v -67.26133 l 16.03934,-3.34935 c 6.79191,-1.42679 11.18052,-8.34598 9.82216,-15.48376 l -1.61958,-8.62054 c -1.35858,-7.13778 -7.9413,-11.75009 -14.73322,-10.3225 l -32.81014,6.80846 c -5.85152,1.26293 -10.08339,6.64378 -10.08339,12.95808 v 85.3257 c 0,42.44323 28.78726,77.96829 66.92643,86.09444 1.35858,49.63618 42.05761,89.60849 91.89982,89.60849 50.67798,0 91.95189,-41.3999 91.95189,-92.24406 V 249.1469 c 9.97903,-6.09488 16.71854,-17.40575 16.71854,-30.41858 0,-19.60188 -15.25564,-35.41516 -33.90731,-35.14058 z m 0.46983,43.92558 c -4.5975,0 -8.35926,-3.95326 -8.35926,-8.785 0,-4.83192 3.76176,-8.78519 8.35926,-8.78519 4.59772,0 8.35948,3.95327 8.35948,8.78519 0,4.83174 -3.76176,8.785 -8.35948,8.785 z"
     fill="currentColor"
     style="fill:#ffffff;stroke-width:0.535598"
     inkscape:export-xdpi="193.83148"
     inkscape:export-ydpi="193.83148" />
</svg>
